<svg xmlns="http://www.w3.org/2000/svg" width="64" height="64" viewBox="0 0 132 132">
	<style type="text/css">
		.st0 {
			fill: #214f50;
		}
	</style>
	<g>
		<g>
			<path class="st0" d="M57.5,130.5c-0.5,0-1-0.1-1.5-0.4L2.7,99c-0.9-0.5-1.5-1.5-1.5-2.5V34.8c0-1,0.6-2,1.5-2.5
				c0.9-0.5,2-0.5,2.9,0l53.2,30.9c0.9,0.5,1.5,1.5,1.5,2.5l0.1,61.8c0,1-0.6,2-1.5,2.5C58.5,130.3,58,130.5,57.5,130.5z M7.1,94.8
				l47.5,27.6l-0.1-55L7.1,39.9V94.8z" />
		</g>
		<g>
			<path class="st0" d="M84.2,114.9H30.8c-1.6,0-2.9-1.3-2.9-2.9V50.3c0-1.6,1.3-2.9,2.9-2.9h53.3c1.6,0,2.9,1.3,2.9,2.9V112
				C87.1,113.6,85.8,114.9,84.2,114.9z M33.8,109.1h47.5V53.2H33.8V109.1z" />
		</g>
		<g>
			<path class="st0" d="M57.5,130.5c-0.5,0-1-0.1-1.5-0.4c-0.9-0.5-1.5-1.5-1.5-2.5l-0.1-61.8c0-1,0.6-2,1.5-2.5l53.4-30.9
				c0.9-0.5,2-0.5,2.9,0c0.9,0.5,1.5,1.5,1.5,2.5v61.7c0,1-0.6,2-1.5,2.5l-53.3,31C58.5,130.3,58,130.5,57.5,130.5z M60.3,67.4
				l0.1,55l47.5-27.6V39.9L60.3,67.4z M110.8,96.5L110.8,96.5L110.8,96.5z" />
		</g>
		<g>
			<path class="st0" d="M57.5,102.9c-0.3,0-0.5,0-0.8-0.1c-0.8-0.2-1.4-0.7-1.8-1.4L28.2,51.7c-0.7-1.4-0.3-3.1,1.1-3.9l52.7-30.4
				c0.7-0.4,2.2-0.3,3-0.1c0.8,0.2,2.5,1.9,2.9,2.6l25.4,47.8c0.7,1.4,0.2,3.1-1.1,3.9l-53.3,31C58.5,102.8,58,102.9,57.5,102.9z
				 M34.7,51.4l23.9,44.5l48.3-28.1L83.3,23.4L34.7,51.4z" />
		</g>
		<g>
			<path class="st0" d="M57.4,68.7c-0.5,0-1-0.1-1.5-0.4L2.7,37.4c-0.9-0.5-1.5-1.5-1.5-2.5c0-1,0.6-2,1.5-2.5L56,1.4
				c0.9-0.5,2-0.5,2.9,0l53.3,30.9c0.9,0.5,1.5,1.5,1.5,2.5c0,1-0.6,2-1.5,2.5L58.9,68.3C58.4,68.5,57.9,68.7,57.4,68.7z M10,34.8
				l47.4,27.5L105,34.8L57.5,7.3L10,34.8z" />
		</g>
	</g>
</svg>