<svg width="737" height="721" viewBox="0 0 737 721" fill="none" xmlns="http://www.w3.org/2000/svg">
<path d="M168.988 282.918L161.161 274.255C151.099 264.01 141.129 253.753 131.251 243.508C119.883 231.212 111.025 219.374 104.699 208.006C94.2592 189.934 89.045 167.943 89.045 142.032C89.045 130.664 91.3713 120.041 96.0354 110.163C100.127 101.591 104.882 95.4484 110.291 91.7125C112.709 90.2227 115.506 89.0538 118.68 88.2173C121.843 87.3807 124.834 86.9567 127.63 86.9567C131.171 86.9567 134.666 87.4724 138.116 88.4923C141.565 89.5237 143.983 90.4978 145.381 91.426C146.779 92.3657 149.804 95.8036 154.469 101.774C155.958 103.642 158.193 106.53 161.173 110.438C161.356 102.794 161.631 94.7837 162.009 86.3952C162.376 78.0067 163.224 71.4861 164.53 66.8334C166.948 57.5167 171.612 46.8935 178.511 34.9639C184.848 24.1574 190.624 16.0554 195.838 10.6464C194.165 23.8824 193.317 39.1582 193.317 56.4853C193.317 75.6803 194.337 96.1818 196.388 117.978C198.44 139.786 201.144 160.379 204.49 179.758C206.725 193.36 209.189 206.264 211.893 218.469C214.598 230.673 218.643 246.373 224.052 265.568C232.246 262.405 238.87 260.079 243.9 258.578C256.38 254.67 262.717 252.71 262.912 252.71C270.361 250.097 275.587 248.241 278.566 247.118C283.78 245.067 291.241 241.342 300.924 235.933C302.047 236.495 302.597 237.056 302.597 237.606C302.219 240.036 301.382 241.331 300.076 241.514C293.739 246.178 287.493 250.831 281.351 255.495C278.555 257.546 274.039 260.434 267.794 264.159C261.548 267.883 256.093 270.828 251.441 272.96C246.777 275.103 239.236 278.414 228.796 282.884L233.266 300.772C236.429 311.029 239.087 319.635 241.23 326.625C243.373 333.616 244.909 339.162 245.837 343.254C249.745 360.214 252.495 376.006 254.088 390.628C255.67 405.262 256.46 421.89 256.46 440.524C256.46 456.739 254.684 473.413 251.154 490.557C249.848 496.711 246.215 510.875 240.256 533.05C236.898 546.091 233.174 557.367 229.071 566.867C224.969 576.367 220.305 584.286 215.091 590.623C201.488 606.461 187.931 618.195 174.42 625.839C160.909 633.483 147.914 637.299 135.423 637.299C127.962 637.299 121.167 636.462 115.013 634.778C108.859 633.105 102.063 630.022 94.603 625.553C88.8273 622.573 82.9599 618.654 76.9894 613.818C71.0188 608.97 64.4983 602.92 57.4277 595.654C51.2738 589.317 45.7846 581.582 40.9371 572.448C36.0896 563.315 31.4369 552.417 26.9561 539.742C21.9253 525.761 18.1551 512.628 15.6339 500.332C13.1128 488.036 11.8638 476.015 11.8638 464.268C11.8638 455.697 12.5169 446.941 13.8233 437.991C15.1297 429.041 17.2727 419.644 20.2522 409.754C22.4869 401.927 24.859 395.04 27.3801 389.07C29.9013 383.111 33.1101 377.048 37.0293 370.906C41.8768 363.457 46.9076 356.558 52.1218 350.221C57.336 343.884 62.9282 337.925 68.8987 332.332C75.6027 326.179 82.5015 320.689 89.5836 315.842C96.6657 310.994 104.584 306.525 113.34 302.423C118.37 300.188 124.421 297.862 131.503 295.432C140.075 292.453 149.014 289.656 158.342 287.044C162.25 285.921 165.229 285.187 167.292 284.809C169.343 284.442 170.741 284.247 171.486 284.247C170.18 284.992 169.343 284.522 168.965 282.849L168.988 282.918ZM183.805 300.807L168.988 305.838C154.824 311.052 140.568 317.206 126.22 324.288C115.597 329.135 105.719 334.682 96.5855 340.916C87.4521 347.161 78.8803 354.106 70.8699 361.738C61.9199 370.505 55.3992 377.667 51.3081 383.26C45.7157 390.903 40.96 400.037 37.0522 410.648C30.715 427.425 27.5521 444.191 27.5521 460.968C27.5521 488.173 36.124 513.431 53.2678 536.717C63.5128 550.881 74.1359 561.504 85.1372 568.586C96.1271 575.668 108.71 579.209 122.874 579.209C128.65 579.209 133.314 578.934 136.855 578.373C140.763 577.433 143.651 576.791 145.519 576.413C152.601 574.924 160.611 571.749 169.561 566.913C188.756 557.596 204.124 541.198 215.687 517.717C220.156 508.583 223.789 499.22 226.585 489.629C229.381 480.037 231.432 469.643 232.739 458.458C233.483 450.815 233.862 442.896 233.862 434.702C233.862 426.509 232.647 417.742 230.229 408.987C226.871 398.925 224.637 391.843 223.525 387.74C220.545 397.619 217.612 407.302 214.724 416.814C211.836 426.314 208.433 434.244 204.525 440.57C199.861 448.58 194.039 455.8 187.049 462.229C180.058 468.657 172.552 473.367 164.542 476.347L180.757 433.304C181.124 432.181 186.246 421.008 196.136 399.762C201.729 387.649 204.525 375.914 204.525 364.546C204.525 354.667 202.943 344.801 199.769 334.911C197.718 328.757 192.4 317.4 183.84 300.807H183.805ZM190.234 274.255C190.234 270.53 188.561 264.376 185.204 255.804C176.437 233.63 171.406 219.007 170.111 211.914C168.06 201.107 166.478 187.035 165.355 169.707C165.172 163.932 164.886 156.196 164.519 146.501C163.029 154.512 161.631 160.391 160.324 164.115C156.417 175.666 151.661 180.892 146.069 179.769C141.783 178.841 138.15 176.606 135.17 173.065C132.191 169.524 130.701 165.513 130.701 161.044C130.701 153.595 133.222 146.88 138.253 140.921C139.926 139.064 142.539 136.829 146.08 134.217C143.467 131.237 141.324 129.002 139.651 127.513C134.62 123.043 130.243 120.809 126.518 120.809C121.854 120.809 118.508 122.86 116.457 126.963C114.405 131.065 113.385 136.749 113.385 144.015C113.385 151.658 114.314 159.852 116.182 168.619C121.579 179.059 128.386 189.865 136.591 201.038C139.009 204.396 145.438 212.773 155.878 226.192C170.226 244.264 181.685 260.297 190.257 274.266L190.234 274.255Z" fill="#D4ECDD"/>
<path d="M462.618 635.558C450.643 657.148 432.628 676.606 409.399 685.121C389.803 692.306 375.226 692.856 357.613 679.277C343.85 668.676 337.467 657.113 327.806 636.303C323.142 626.264 315.945 603.94 311.086 584.894C305.334 562.33 298.504 525.888 295.833 499.267C292.395 464.876 290.046 441.487 286.391 404.266C283.411 373.921 284.832 371.961 281.039 325.996C277.246 280.031 261.03 173.536 260.939 129.828C260.813 70.421 263.334 75.0852 270.255 31.7101C271.665 22.909 272.673 24.0206 273.452 18.1074C274.232 12.1941 274.209 13.4662 275.584 8.89373C276.214 9.03125 276.925 9.38651 277.544 8.80206C279.549 15.0591 279.824 8.14886 280.684 16.0905C284.591 52.0511 283.422 42.5739 286.345 93.0425C289.267 143.511 307.098 260.034 312.817 306.847C319.635 362.656 320.781 377.989 323.875 405.538C328.906 450.288 330.556 472.234 333.307 502.361C336.871 541.439 341.099 560.451 349.935 592.63C353.487 605.568 358.851 613.005 365.257 621.737C374.081 633.77 381.93 640.566 396.576 638.4C399.441 637.976 403.452 634.366 406.855 632.04C410.259 629.713 413.238 627.032 417.375 623.319C421.512 619.606 425.982 614.22 431.001 609.246C439.275 601.052 449.6 591.564 456.969 581.834C458 604.525 449.577 614.735 462.584 635.535L462.618 635.558Z" fill="#D4ECDD"/>
<path d="M581.423 645.114L568.427 655.107C563.763 657.995 558.205 660.436 551.776 662.441C545.336 664.435 538.781 665.444 532.123 665.444C519.013 665.444 506.361 660.665 494.145 651.119C487.04 645.572 478.491 636.68 468.498 624.464L454.838 648.117V586.486C458.838 581.822 461.497 578.602 462.837 576.825C465.278 573.938 467.501 570.614 469.495 566.833C473.048 560.392 475.821 552.29 477.827 542.515C479.374 532.522 480.268 526.414 480.497 524.191C480.497 522.644 481.494 521.635 483.499 521.189C484.611 522.3 485.379 524.076 485.826 526.517C486.273 528.958 486.823 532.9 487.487 538.344C488.152 543.787 488.484 548.841 488.484 553.505V560.495C488.484 562.719 488.599 564.827 488.817 566.821C488.817 572.597 488.312 577.868 487.315 582.647C486.318 587.426 484.256 592.926 481.15 599.138C488.92 604.249 494.913 607.801 499.142 609.795C508.917 614.459 517.798 616.786 525.797 616.786H529.464C532.352 616.121 534.461 615.674 535.79 615.456C540.007 614.345 543.892 612.683 547.445 610.46C551.879 607.354 555.443 604.799 558.102 602.793C568.313 596.353 576.094 589.362 581.423 581.811V645.103V645.114ZM501.308 425.19C498.191 436.295 494.753 446.07 490.982 454.504C488.095 462.503 485.207 467.717 482.319 470.158L447.011 450.173C448.559 444.626 449.452 441.406 449.682 440.512C450.793 437.406 452.684 432.742 455.343 426.52C457.337 421.409 459.56 414.751 462.001 406.534C463.112 402.981 464.213 399.314 465.336 395.544C469.335 397.103 474.045 400.437 479.488 405.537C484.932 410.648 488.312 413.65 489.653 414.533C496.093 417.868 499.978 421.42 501.308 425.19Z" fill="#D4ECDD"/>
<path d="M662.775 403.829C671.748 396.357 682.508 391.762 696.283 390.135C700.878 398.844 705.829 408.619 708.063 417.902C710.298 427.196 712.017 434.954 714.779 443.743C689.888 452.407 667.931 457.633 652.277 481.171C637.884 502.818 634.95 529.795 631.088 555.499C625.542 592.319 612.386 627.328 578.821 647.532C578.866 627.168 582.442 606.93 578.958 586.566C580.081 584.755 581.25 583.862 582.281 581.959C599.471 550.204 609.04 515.183 621.199 481.366C628.132 462.056 634.824 442.391 645.493 424.755C650.627 416.263 656.242 409.273 662.797 403.806L662.775 403.829ZM702.46 561.492C699.343 572.597 695.905 582.372 692.134 590.806C689.247 598.805 686.359 604.019 683.471 606.46L648.163 586.474C649.71 580.928 650.604 577.708 650.833 576.814C651.945 573.708 653.836 569.044 656.494 562.822C658.488 557.711 660.712 551.052 663.153 542.836C664.264 539.283 665.364 535.616 666.487 531.846C670.487 533.404 675.197 536.739 680.64 541.839C686.084 546.95 689.464 549.952 690.805 550.835C697.245 554.169 701.13 557.722 702.46 561.492ZM736.999 493.525C733.882 504.629 730.444 514.404 726.674 522.839C723.786 530.837 720.898 536.052 718.01 538.493L682.703 518.507C684.25 512.96 685.144 509.74 685.373 508.846C686.485 505.741 688.375 501.076 691.034 494.854C693.028 489.743 695.251 483.085 697.692 474.868C698.804 471.316 699.904 467.648 701.027 463.878C705.027 465.437 709.736 468.772 715.18 473.871C720.623 478.982 724.004 481.985 725.345 482.867C731.785 486.202 735.67 489.754 736.999 493.525Z" fill="#D4ECDD"/>
<path d="M692.619 255.162C690.981 267.435 686.053 273.738 677.218 277.658C633.212 297.151 589.39 317.182 545.534 337.111C539.116 340.033 532.871 343.482 525.857 347.046C525.903 336.469 527.588 328.883 536.641 324.906C578.366 306.616 619.953 287.914 661.575 269.315C671.625 264.823 681.618 260.181 692.619 255.151V255.162Z" fill="#D4ECDD"/>
<path d="M48.1437 282.849C51.8108 270.266 54.4924 260.319 57.6439 250.521C59.042 246.155 61.0245 241.892 63.3623 237.938C69.4474 227.636 76.8045 224.656 83.8064 229.229C94.2233 236.024 95.3005 242.671 87.8517 254.371C87.1412 254.371 86.2015 254.669 85.6973 254.325C70.7194 244.241 69.0577 244.55 63.5112 261.9C59.7639 273.612 57.472 285.771 53.9653 297.563C52.3954 302.846 49.4387 307.728 46.0581 315.096C40.7981 300.967 37.0851 289.415 32.1804 278.402C28.8112 270.839 26.038 262.141 13.4093 264.926C9.68492 265.751 1.39952 259.07 0.219168 254.52C-0.961185 249.982 2.80902 242.144 6.90014 238.878C10.1547 236.276 19.2308 236.185 22.1187 238.866C29.5217 245.731 35.4693 254.417 40.9127 263.058C44.0985 268.123 45.1985 274.495 48.1322 282.849H48.1437Z" fill="#D4ECDD"/>
<path d="M253.436 685.349C257.481 671.448 260.449 660.47 263.933 649.641C265.48 644.828 267.669 640.106 270.247 635.74C276.963 624.36 285.088 621.071 292.823 626.114C304.329 633.608 305.52 640.954 297.292 653.881C296.513 653.881 295.482 654.213 294.92 653.835C278.384 642.696 276.55 643.04 270.419 662.2C266.282 675.127 263.75 688.569 259.876 701.588C258.146 707.432 254.88 712.818 251.144 720.954C245.334 705.346 241.231 692.592 235.822 680.433C232.098 672.079 229.038 662.464 215.092 665.558C210.978 666.463 201.833 659.095 200.515 654.076C199.209 649.068 203.368 640.404 207.895 636.806C211.493 633.941 221.521 633.826 224.706 636.783C232.889 644.369 239.455 653.961 245.46 663.507C248.978 669.099 250.193 676.135 253.436 685.361V685.349Z" fill="#D4ECDD"/>
<path d="M506.739 134.732C514.428 113.772 522.668 88.5835 529.899 68.38C533.119 59.3841 538.986 48.9558 541.714 43.925C548.83 30.815 559.66 23.9736 569.355 31.5026C583.782 42.6873 578.27 51.4082 570.42 63.6128C569.286 63.6472 568.472 64.0024 567.59 63.4982C541.565 48.6234 542.183 67.0965 532.729 92.8122C526.346 110.162 518.851 134.995 512.423 153.297C509.535 161.502 505.581 166.922 502.017 174.348C497.892 157.491 492.666 143.063 488.827 125.725C486.191 113.818 484.954 105.521 469.712 104.146C465.22 103.745 456.373 95.1958 456.419 88.6981C456.476 82.2005 461.404 74.9006 467.649 71.795C472.623 69.3197 482.455 70.7293 485.71 74.8548C494.053 85.4436 497.777 94.577 502.751 107.274C505.661 114.712 505.398 126.446 506.727 134.72L506.739 134.732Z" fill="#D4ECDD"/>
<path d="M693.215 188.708C688.94 197.933 684.826 207.25 680.242 216.314C679.406 217.976 676.804 218.984 674.81 219.787C616.618 243.371 558.253 266.554 500.221 290.539C454.52 309.425 409.22 329.296 363.736 348.732C362.831 349.121 361.937 349.568 359.278 350.806C360.367 343.838 361.249 338.074 362.166 332.31C363.564 323.463 368.56 318.363 376.869 314.364C430.821 288.407 486.825 267.551 542.714 246.35C588.014 229.161 633.051 211.272 678.179 193.613C682.775 191.813 687.164 189.521 691.656 187.459C692.183 187.883 692.71 188.295 693.238 188.719L693.215 188.708Z" fill="#D4ECDD"/>
<path d="M440.482 508.456C440.058 510.989 439.921 513.613 439.153 516.031C436.46 524.466 433.951 532.992 430.57 541.151C428.209 546.858 423.488 550.525 416.818 550.502C410.023 550.479 405.496 546.652 402.413 541.059C398.551 534.046 398.139 526.311 398.574 518.529C399.48 502.28 403.846 486.775 409.576 471.682C413.38 461.655 417.941 451.926 422.216 442.082C422.926 440.431 423.946 438.919 425.986 437.67C425.413 439.881 424.852 442.093 424.267 444.293C419.832 461.139 414.859 477.882 411.226 494.9C409.736 501.901 410.745 509.557 411.398 516.845C411.765 521.005 413.77 525.096 418.445 526.425C423.075 527.743 426.777 525.405 429.504 522.116C433.102 517.773 436.139 512.972 439.417 508.376C439.772 508.399 440.116 508.422 440.471 508.456H440.482Z" fill="#D4ECDD"/>
<path d="M106.949 454.653C106.525 457.186 106.388 459.81 105.62 462.228C102.927 470.662 100.417 479.188 97.0365 487.348C94.6757 493.055 89.9543 496.722 83.2848 496.699C76.4892 496.676 71.9626 492.848 68.88 487.256C65.018 480.243 64.6054 472.507 65.0408 464.726C65.9461 448.476 70.3124 432.971 76.0423 417.879C79.8469 407.852 84.4078 398.122 88.6823 388.278C89.3928 386.628 90.4127 385.116 92.4526 383.866C91.8796 386.078 91.318 388.29 90.7336 390.49C86.2987 407.336 81.3252 424.079 77.6924 441.096C76.2027 448.098 77.2111 455.753 77.8643 463.042C78.2311 467.202 80.2365 471.293 84.9121 472.622C89.5418 473.94 93.2432 471.602 95.9706 468.313C99.569 463.97 102.606 459.168 105.883 454.573C106.239 454.596 106.582 454.619 106.938 454.653H106.949Z" fill="#D4ECDD"/>
<path d="M624.025 147.384C623.715 149.229 623.624 151.131 623.062 152.896C621.103 159.027 619.269 165.226 616.817 171.163C615.098 175.311 611.66 177.981 606.812 177.97C601.862 177.958 598.573 175.162 596.338 171.105C593.53 166.006 593.233 160.379 593.542 154.718C594.195 142.891 597.381 131.615 601.541 120.637C604.303 113.348 607.626 106.266 610.732 99.1039C611.247 97.9006 611.992 96.8005 613.47 95.8951C613.058 97.4995 612.645 99.1153 612.221 100.72C609.001 112.982 605.38 125.152 602.733 137.54C601.644 142.628 602.389 148.197 602.859 153.503C603.122 156.529 604.589 159.508 607.993 160.471C611.362 161.433 614.055 159.737 616.037 157.342C618.65 154.191 620.862 150.696 623.257 147.349C623.509 147.372 623.773 147.384 624.025 147.407V147.384Z" fill="#D4ECDD"/>
<path d="M593.542 362.609C595.353 360.787 596.98 358.724 599.009 357.2C606.091 351.883 613.07 346.394 620.553 341.695C625.779 338.418 631.749 338.154 637.181 342.027C642.716 345.981 644.183 351.722 643.461 358.06C642.556 366.013 638.407 372.568 633.548 378.653C623.406 391.384 610.858 401.492 597.45 410.476C588.546 416.447 579.195 421.741 570.004 427.288C568.468 428.216 566.761 428.869 564.377 428.709C566.119 427.242 567.861 425.764 569.614 424.297C582.988 413.124 596.728 402.363 609.552 390.582C614.823 385.735 618.421 378.905 622.123 372.59C624.231 368.992 624.965 364.488 621.917 360.695C618.903 356.948 614.537 356.696 610.4 357.807C604.956 359.263 599.696 361.417 594.356 363.274C594.081 363.045 593.817 362.827 593.542 362.598V362.609Z" fill="#D4ECDD"/>
<path d="M383.669 7.10558C385.858 9.11103 387.966 10.7383 389.708 12.6865C415.092 40.9576 420.799 74.0992 414.587 110.575C411.046 131.386 400.675 149.516 393.708 168.963C390.132 178.933 388.287 189.556 386.27 200.007C385.697 202.952 386.889 206.471 387.989 209.462C390.648 216.67 397.73 218.583 403.586 213.484C406.726 210.745 408.995 207.021 411.665 203.743C413.247 201.806 414.84 199.881 417.097 198.414C415.493 211.593 412.124 224.141 403.265 233.859C399.896 237.561 393.524 240.048 388.413 240.242C381.858 240.494 378.1 234.799 376.243 228.679C371.212 212.028 374.65 195.916 380.357 180.274C386.339 163.886 393.742 148.003 399.529 131.547C411.677 96.9843 403.093 66.1461 380.953 38.299C370.364 24.9828 370.147 25.1432 380.208 11.0134C381.045 9.833 382.122 8.82454 383.658 7.09412L383.669 7.10558Z" fill="#D4ECDD"/>
<path d="M333.684 0C361.91 18.6908 372.384 123.032 347.528 144.461C347.528 141.218 347.333 139.018 347.562 136.864C348.937 123.547 351.837 110.22 351.55 96.9493C351.034 71.9442 342.004 49.2424 327.84 28.7868C323.932 23.1486 323.222 18.4845 326.809 12.7661C329.295 8.80107 331.278 4.51513 333.684 0Z" fill="#D4ECDD"/>
<path d="M369.356 409.846C373.299 407.68 377.275 405.572 381.183 403.349C390.671 397.951 400.195 392.622 409.523 386.961C411.311 385.884 412.239 383.397 413.557 381.552C411.574 380.223 409.534 377.667 407.621 377.759C397.398 378.217 387.188 379.237 377 380.303C373.746 380.647 370.571 381.701 365.815 382.778C367.362 378.515 368.027 374.94 369.826 372.075C373.058 366.918 378.135 363.721 384.013 362.414C396.482 359.641 409.11 359.378 421.773 360.913C423.481 361.119 425.2 361.612 426.804 362.254C431.72 364.225 432.878 367.205 430.586 371.995C423.618 386.526 411.757 396.026 397.845 403.222C389.09 407.749 379.876 410.923 369.906 411.187C369.723 410.74 369.54 410.305 369.356 409.858V409.846Z" fill="#D4ECDD"/>
</svg>
