<svg width="737" height="721" viewBox="0 0 737 721" fill="none" xmlns="http://www.w3.org/2000/svg">
<path d="M168.989 282.918L161.162 274.255C151.1 264.01 141.13 253.753 131.252 243.508C119.884 231.212 111.025 219.374 104.7 208.006C94.2597 189.934 89.0455 167.943 89.0455 142.032C89.0455 130.664 91.3718 120.041 96.0359 110.163C100.127 101.591 104.883 95.4484 110.292 91.7125C112.71 90.2227 115.506 89.0538 118.68 88.2173C121.843 87.3807 124.834 86.9567 127.63 86.9567C131.171 86.9567 134.667 87.4724 138.116 88.4923C141.565 89.5237 143.984 90.4978 145.382 91.426C146.78 92.3657 149.805 95.8036 154.469 101.774C155.959 103.642 158.193 106.53 161.173 110.438C161.356 102.794 161.631 94.7837 162.01 86.3952C162.376 78.0067 163.224 71.4861 164.531 66.8334C166.949 57.5167 171.613 46.8935 178.512 34.9639C184.849 24.1574 190.625 16.0554 195.839 10.6464C194.166 23.8824 193.318 39.1582 193.318 56.4853C193.318 75.6803 194.337 96.1818 196.389 117.978C198.44 139.786 201.145 160.379 204.491 179.758C206.725 193.36 209.189 206.264 211.894 218.469C214.598 230.673 218.644 246.373 224.053 265.568C232.246 262.405 238.87 260.079 243.901 258.578C256.381 254.67 262.718 252.71 262.913 252.71C270.361 250.097 275.587 248.241 278.567 247.118C283.781 245.067 291.241 241.342 300.924 235.933C302.048 236.495 302.598 237.056 302.598 237.606C302.219 240.036 301.383 241.331 300.076 241.514C293.739 246.178 287.494 250.831 281.351 255.495C278.555 257.546 274.04 260.434 267.794 264.159C261.549 267.883 256.094 270.828 251.441 272.96C246.777 275.103 239.237 278.414 228.797 282.884L233.266 300.772C236.429 311.029 239.088 319.635 241.231 326.625C243.374 333.616 244.909 339.162 245.837 343.254C249.745 360.214 252.496 376.006 254.089 390.628C255.67 405.262 256.461 421.89 256.461 440.524C256.461 456.739 254.684 473.413 251.155 490.557C249.848 496.711 246.216 510.875 240.257 533.05C236.899 546.091 233.174 557.367 229.072 566.867C224.969 576.367 220.305 584.286 215.091 590.623C201.488 606.461 187.932 618.195 174.421 625.839C160.909 633.483 147.914 637.299 135.423 637.299C127.963 637.299 121.167 636.462 115.013 634.778C108.859 633.105 102.064 630.022 94.6035 625.553C88.8278 622.573 82.9604 618.654 76.9899 613.818C71.0193 608.97 64.4988 602.92 57.4282 595.654C51.2743 589.317 45.7851 581.582 40.9376 572.448C36.0901 563.315 31.4374 552.417 26.9566 539.742C21.9258 525.761 18.1556 512.628 15.6344 500.332C13.1133 488.036 11.8643 476.015 11.8643 464.268C11.8643 455.697 12.5174 446.941 13.8238 437.991C15.1302 429.041 17.2732 419.644 20.2527 409.754C22.4874 401.927 24.8595 395.04 27.3806 389.07C29.9018 383.111 33.1106 377.048 37.0298 370.906C41.8772 363.457 46.9081 356.558 52.1223 350.221C57.3365 343.884 62.9287 337.925 68.8992 332.332C75.6032 326.179 82.502 320.689 89.5841 315.842C96.6662 310.994 104.585 306.525 113.34 302.423C118.371 300.188 124.422 297.862 131.504 295.432C140.076 292.453 149.014 289.656 158.342 287.044C162.25 285.921 165.23 285.187 167.293 284.809C169.344 284.442 170.742 284.247 171.487 284.247C170.18 284.992 169.344 284.522 168.966 282.849L168.989 282.918ZM183.806 300.807L168.989 305.838C154.824 311.052 140.568 317.206 126.221 324.288C115.598 329.135 105.719 334.682 96.586 340.916C87.4526 347.161 78.8808 354.106 70.8704 361.738C61.9204 370.505 55.3997 377.667 51.3086 383.26C45.7162 390.903 40.9605 400.037 37.0527 410.648C30.7155 427.425 27.5526 444.191 27.5526 460.968C27.5526 488.173 36.1245 513.431 53.2683 536.717C63.5133 550.881 74.1364 561.504 85.1377 568.586C96.1276 575.668 108.71 579.209 122.875 579.209C128.65 579.209 133.314 578.934 136.855 578.373C140.763 577.433 143.651 576.791 145.519 576.413C152.601 574.924 160.612 571.749 169.562 566.913C188.757 557.596 204.124 541.198 215.687 517.717C220.156 508.583 223.789 499.22 226.585 489.629C229.381 480.037 231.433 469.643 232.739 458.458C233.484 450.815 233.862 442.896 233.862 434.702C233.862 426.509 232.647 417.742 230.229 408.987C226.872 398.925 224.637 391.843 223.525 387.74C220.546 397.619 217.612 407.302 214.724 416.814C211.836 426.314 208.433 434.244 204.525 440.57C199.861 448.58 194.04 455.8 187.049 462.229C180.059 468.657 172.553 473.367 164.542 476.347L180.758 433.304C181.124 432.181 186.247 421.008 196.137 399.762C201.729 387.649 204.525 375.914 204.525 364.546C204.525 354.667 202.944 344.801 199.769 334.911C197.718 328.757 192.401 317.4 183.84 300.807H183.806ZM190.235 274.255C190.235 270.53 188.562 264.376 185.204 255.804C176.437 233.63 171.407 219.007 170.112 211.914C168.06 201.107 166.479 187.035 165.356 169.707C165.172 163.932 164.886 156.196 164.519 146.501C163.03 154.512 161.631 160.391 160.325 164.115C156.417 175.666 151.661 180.892 146.069 179.769C141.783 178.841 138.15 176.606 135.171 173.065C132.191 169.524 130.702 165.513 130.702 161.044C130.702 153.595 133.223 146.88 138.254 140.921C139.927 139.064 142.54 136.829 146.081 134.217C143.468 131.237 141.325 129.002 139.652 127.513C134.621 123.043 130.243 120.809 126.519 120.809C121.855 120.809 118.508 122.86 116.457 126.963C114.406 131.065 113.386 136.749 113.386 144.015C113.386 151.658 114.314 159.852 116.182 168.619C121.58 179.059 128.387 189.865 136.592 201.038C139.01 204.396 145.439 212.773 155.879 226.192C170.226 244.264 181.686 260.297 190.258 274.266L190.235 274.255Z" fill="#214F50"/>
<path d="M462.619 635.558C450.643 657.148 432.629 676.606 409.4 685.121C389.804 692.306 375.227 692.856 357.613 679.277C343.85 668.676 337.467 657.113 327.807 636.303C323.142 626.264 315.946 603.94 311.087 584.894C305.334 562.33 298.504 525.888 295.834 499.267C292.396 464.876 290.047 441.487 286.391 404.266C283.412 373.921 284.833 371.961 281.039 325.996C277.246 280.031 261.031 173.536 260.939 129.828C260.813 70.421 263.334 75.0852 270.256 31.7101C271.665 22.909 272.674 24.0206 273.453 18.1074C274.232 12.1941 274.209 13.4662 275.585 8.89373C276.215 9.03125 276.925 9.38651 277.544 8.80206C279.55 15.0591 279.825 8.14886 280.684 16.0905C284.592 52.0511 283.423 42.5739 286.345 93.0425C289.267 143.511 307.099 260.034 312.817 306.847C319.636 362.656 320.782 377.989 323.876 405.538C328.907 450.288 330.557 472.234 333.307 502.361C336.871 541.439 341.1 560.451 349.935 592.63C353.488 605.568 358.851 613.005 365.257 621.737C374.081 633.77 381.931 640.566 396.576 638.4C399.441 637.976 403.452 634.366 406.856 632.04C410.259 629.713 413.239 627.032 417.376 623.319C421.513 619.606 425.982 614.22 431.001 609.246C439.275 601.052 449.601 591.564 456.969 581.834C458.001 604.525 449.578 614.735 462.584 635.535L462.619 635.558Z" fill="#214F50"/>
<path d="M581.423 645.114L568.428 655.107C563.764 657.995 558.206 660.436 551.777 662.441C545.337 664.435 538.782 665.444 532.124 665.444C519.014 665.444 506.362 660.665 494.146 651.119C487.041 645.572 478.492 636.68 468.499 624.464L454.839 648.117V586.486C458.838 581.822 461.497 578.602 462.838 576.825C465.279 573.938 467.502 570.614 469.496 566.833C473.049 560.392 475.822 552.29 477.827 542.515C479.374 532.522 480.268 526.414 480.497 524.191C480.497 522.644 481.494 521.635 483.5 521.189C484.611 522.3 485.379 524.076 485.826 526.517C486.273 528.958 486.823 532.9 487.488 538.344C488.152 543.787 488.485 548.841 488.485 553.505V560.495C488.485 562.719 488.599 564.827 488.817 566.821C488.817 572.597 488.313 577.868 487.316 582.647C486.319 587.426 484.256 592.926 481.151 599.138C488.92 604.249 494.914 607.801 499.142 609.795C508.918 614.459 517.799 616.786 525.798 616.786H529.465C532.353 616.121 534.461 615.674 535.791 615.456C540.008 614.345 543.893 612.683 547.445 610.46C551.88 607.354 555.444 604.799 558.103 602.793C568.313 596.353 576.095 589.362 581.423 581.811V645.103V645.114ZM501.308 425.19C498.191 436.295 494.753 446.07 490.983 454.504C488.095 462.503 485.207 467.717 482.319 470.158L447.012 450.173C448.559 444.626 449.453 441.406 449.682 440.512C450.794 437.406 452.685 432.742 455.343 426.52C457.337 421.409 459.56 414.751 462.001 406.534C463.113 402.981 464.213 399.314 465.336 395.544C469.336 397.103 474.046 400.437 479.489 405.537C484.932 410.648 488.313 413.65 489.654 414.533C496.094 417.868 499.979 421.42 501.308 425.19Z" fill="#214F50"/>
<path d="M662.775 403.829C671.748 396.357 682.509 391.762 696.283 390.135C700.879 398.844 705.829 408.619 708.064 417.902C710.298 427.196 712.018 434.954 714.779 443.743C689.889 452.407 667.932 457.633 652.278 481.171C637.884 502.818 634.951 529.795 631.089 555.499C625.542 592.319 612.387 627.328 578.821 647.532C578.867 627.168 582.442 606.93 578.959 586.566C580.082 584.755 581.251 583.862 582.282 581.959C599.472 550.204 609.04 515.183 621.199 481.366C628.132 462.056 634.825 442.391 645.494 424.755C650.628 416.263 656.243 409.273 662.798 403.806L662.775 403.829ZM702.46 561.492C699.343 572.597 695.905 582.372 692.135 590.806C689.247 598.805 686.359 604.019 683.471 606.46L648.164 586.474C649.711 580.928 650.605 577.708 650.834 576.814C651.946 573.708 653.836 569.044 656.495 562.822C658.489 557.711 660.712 551.052 663.153 542.836C664.265 539.283 665.365 535.616 666.488 531.846C670.487 533.404 675.197 536.739 680.641 541.839C686.084 546.95 689.465 549.952 690.805 550.835C697.246 554.169 701.131 557.722 702.46 561.492ZM737 493.525C733.883 504.629 730.445 514.404 726.674 522.839C723.787 530.837 720.899 536.052 718.011 538.493L682.704 518.507C684.251 512.96 685.144 509.74 685.374 508.846C686.485 505.741 688.376 501.076 691.035 494.854C693.029 489.743 695.252 483.085 697.693 474.868C698.804 471.316 699.905 467.648 701.028 463.878C705.027 465.437 709.737 468.772 715.18 473.871C720.624 478.982 724.004 481.985 725.345 482.867C731.786 486.202 735.67 489.754 737 493.525Z" fill="#214F50"/>
<path d="M692.62 255.162C690.981 267.435 686.054 273.738 677.218 277.658C633.213 297.151 589.391 317.182 545.534 337.111C539.117 340.033 532.871 343.482 525.858 347.046C525.904 336.469 527.588 328.883 536.642 324.906C578.366 306.616 619.954 287.914 661.576 269.315C671.626 264.823 681.619 260.181 692.62 255.151V255.162Z" fill="#214F50"/>
<path d="M48.1442 282.849C51.8113 270.266 54.4929 260.319 57.6444 250.521C59.0424 246.155 61.025 241.892 63.3627 237.938C69.4479 227.636 76.805 224.656 83.8069 229.229C94.2238 236.024 95.301 242.671 87.8522 254.371C87.1417 254.371 86.202 254.669 85.6977 254.325C70.7199 244.241 69.0582 244.55 63.5117 261.9C59.7644 273.612 57.4725 285.771 53.9658 297.563C52.3958 302.846 49.4392 307.728 46.0586 315.096C40.7986 300.967 37.0856 289.415 32.1809 278.402C28.8117 270.839 26.0384 262.141 13.4098 264.926C9.6854 265.751 1.40001 259.07 0.219656 254.52C-0.960696 249.982 2.80951 242.144 6.90063 238.878C10.1552 236.276 19.2313 236.185 22.1192 238.866C29.5222 245.731 35.4698 254.417 40.9132 263.058C44.099 268.123 45.199 274.495 48.1327 282.849H48.1442Z" fill="#214F50"/>
<path d="M253.436 685.349C257.482 671.448 260.45 660.47 263.933 649.641C265.48 644.828 267.669 640.106 270.248 635.74C276.963 624.36 285.088 621.071 292.823 626.114C304.329 633.608 305.521 640.954 297.293 653.881C296.513 653.881 295.482 654.213 294.921 653.835C278.384 642.696 276.551 643.04 270.42 662.2C266.283 675.127 263.75 688.569 259.877 701.588C258.146 707.432 254.88 712.818 251.144 720.954C245.334 705.346 241.232 692.592 235.823 680.433C232.098 672.079 229.039 662.464 215.092 665.558C210.978 666.463 201.833 659.095 200.515 654.076C199.209 649.068 203.369 640.404 207.895 636.806C211.494 633.941 221.521 633.826 224.707 636.783C232.889 644.369 239.455 653.961 245.46 663.507C248.978 669.099 250.193 676.135 253.436 685.361V685.349Z" fill="#214F50"/>
<path d="M506.739 134.732C514.428 113.772 522.668 88.5835 529.899 68.38C533.119 59.3841 538.987 48.9558 541.714 43.925C548.831 30.815 559.66 23.9736 569.355 31.5026C583.783 42.6873 578.271 51.4082 570.421 63.6128C569.286 63.6472 568.473 64.0024 567.59 63.4982C541.565 48.6234 542.184 67.0965 532.73 92.8122C526.346 110.162 518.852 134.995 512.423 153.297C509.535 161.502 505.582 166.922 502.018 174.348C497.892 157.491 492.666 143.063 488.827 125.725C486.192 113.818 484.954 105.521 469.713 104.146C465.22 103.745 456.373 95.1958 456.419 88.6981C456.477 82.2005 461.404 74.9006 467.65 71.795C472.623 69.3197 482.456 70.7293 485.71 74.8548C494.053 85.4436 497.777 94.577 502.751 107.274C505.662 114.712 505.398 126.446 506.727 134.72L506.739 134.732Z" fill="#214F50"/>
<path d="M693.215 188.708C688.941 197.933 684.827 207.25 680.243 216.314C679.406 217.976 676.805 218.984 674.811 219.787C616.618 243.371 558.254 266.554 500.222 290.539C454.52 309.425 409.22 329.296 363.736 348.732C362.831 349.121 361.937 349.568 359.279 350.806C360.367 343.838 361.25 338.074 362.166 332.31C363.565 323.463 368.561 318.363 376.869 314.364C430.822 288.407 486.825 267.551 542.715 246.35C588.015 229.161 633.052 211.272 678.18 193.613C682.775 191.813 687.164 189.521 691.657 187.459C692.184 187.883 692.711 188.295 693.238 188.719L693.215 188.708Z" fill="#214F50"/>
<path d="M440.483 508.456C440.059 510.989 439.922 513.613 439.154 516.031C436.461 524.466 433.951 532.992 430.571 541.151C428.21 546.858 423.488 550.525 416.819 550.502C410.023 550.479 405.497 546.652 402.414 541.059C398.552 534.046 398.139 526.311 398.575 518.529C399.48 502.28 403.846 486.775 409.576 471.682C413.381 461.655 417.942 451.926 422.216 442.082C422.927 440.431 423.947 438.919 425.987 437.67C425.414 439.881 424.852 442.093 424.268 444.293C419.833 461.139 414.859 477.882 411.226 494.9C409.737 501.901 410.745 509.557 411.398 516.845C411.765 521.005 413.77 525.096 418.446 526.425C423.076 527.743 426.777 525.405 429.505 522.116C433.103 517.773 436.14 512.972 439.417 508.376C439.773 508.399 440.116 508.422 440.472 508.456H440.483Z" fill="#214F50"/>
<path d="M106.95 454.653C106.526 457.186 106.388 459.81 105.62 462.228C102.927 470.662 100.418 479.188 97.0369 487.348C94.6762 493.055 89.9548 496.722 83.2853 496.699C76.4896 496.676 71.9631 492.848 68.8804 487.256C65.0185 480.243 64.6058 472.507 65.0413 464.726C65.9466 448.476 70.3129 432.971 76.0428 417.879C79.8474 407.852 84.4083 398.122 88.6828 388.278C89.3933 386.628 90.4132 385.116 92.453 383.866C91.8801 386.078 91.3185 388.29 90.7341 390.49C86.2992 407.336 81.3256 424.079 77.6929 441.096C76.2031 448.098 77.2116 455.753 77.8648 463.042C78.2315 467.202 80.237 471.293 84.9126 472.622C89.5423 473.94 93.2437 471.602 95.9711 468.313C99.5695 463.97 102.606 459.168 105.884 454.573C106.239 454.596 106.583 454.619 106.938 454.653H106.95Z" fill="#214F50"/>
<path d="M624.025 147.384C623.716 149.229 623.624 151.131 623.063 152.896C621.103 159.027 619.269 165.226 616.817 171.163C615.098 175.311 611.66 177.981 606.813 177.97C601.862 177.958 598.573 175.162 596.339 171.105C593.531 166.006 593.233 160.379 593.542 154.718C594.196 142.891 597.381 131.615 601.541 120.637C604.303 113.348 607.626 106.266 610.732 99.1039C611.248 97.9006 611.993 96.8005 613.471 95.8951C613.058 97.4995 612.646 99.1153 612.222 100.72C609.002 112.982 605.38 125.152 602.733 137.54C601.644 142.628 602.389 148.197 602.859 153.503C603.123 156.529 604.59 159.508 607.993 160.471C611.362 161.433 614.055 159.737 616.038 157.342C618.651 154.191 620.862 150.696 623.257 147.349C623.51 147.372 623.773 147.384 624.025 147.407V147.384Z" fill="#214F50"/>
<path d="M593.543 362.609C595.354 360.787 596.981 358.724 599.009 357.2C606.091 351.883 613.07 346.394 620.554 341.695C625.779 338.418 631.75 338.154 637.182 342.027C642.717 345.981 644.183 351.722 643.462 358.06C642.556 366.013 638.408 372.568 633.549 378.653C623.407 391.384 610.859 401.492 597.451 410.476C588.547 416.447 579.195 421.741 570.005 427.288C568.469 428.216 566.762 428.869 564.378 428.709C566.12 427.242 567.862 425.764 569.615 424.297C582.989 413.124 596.729 402.363 609.552 390.582C614.824 385.735 618.422 378.905 622.124 372.59C624.232 368.992 624.966 364.488 621.917 360.695C618.903 356.948 614.537 356.696 610.4 357.807C604.957 359.263 599.697 361.417 594.357 363.274C594.082 363.045 593.818 362.827 593.543 362.598V362.609Z" fill="#214F50"/>
<path d="M383.67 7.10558C385.858 9.11103 387.967 10.7383 389.709 12.6865C415.092 40.9576 420.799 74.0992 414.588 110.575C411.047 131.386 400.676 149.516 393.708 168.963C390.133 178.933 388.288 189.556 386.271 200.007C385.698 202.952 386.89 206.471 387.99 209.462C390.649 216.67 397.731 218.583 403.587 213.484C406.727 210.745 408.996 207.021 411.666 203.743C413.247 201.806 414.84 199.881 417.098 198.414C415.493 211.593 412.124 224.141 403.266 233.859C399.897 237.561 393.525 240.048 388.414 240.242C381.859 240.494 378.1 234.799 376.244 228.679C371.213 212.028 374.651 195.916 380.358 180.274C386.34 163.886 393.743 148.003 399.53 131.547C411.677 96.9843 403.094 66.1461 380.954 38.299C370.365 24.9828 370.147 25.1432 380.209 11.0134C381.045 9.833 382.123 8.82454 383.658 7.09412L383.67 7.10558Z" fill="#214F50"/>
<path d="M333.685 0C361.91 18.6908 372.384 123.032 347.528 144.461C347.528 141.218 347.333 139.018 347.563 136.864C348.938 123.547 351.837 110.22 351.551 96.9493C351.035 71.9442 342.005 49.2424 327.841 28.7868C323.933 23.1486 323.222 18.4845 326.809 12.7661C329.296 8.80107 331.278 4.51513 333.685 0Z" fill="#214F50"/>
<path d="M369.357 409.846C373.299 407.68 377.275 405.572 381.183 403.349C390.672 397.951 400.195 392.622 409.523 386.961C411.311 385.884 412.239 383.397 413.557 381.552C411.574 380.223 409.535 377.667 407.621 377.759C397.399 378.217 387.188 379.237 377.001 380.303C373.746 380.647 370.572 381.701 365.816 382.778C367.363 378.515 368.028 374.94 369.827 372.075C373.058 366.918 378.135 363.721 384.014 362.414C396.482 359.641 409.111 359.378 421.774 360.913C423.481 361.119 425.2 361.612 426.804 362.254C431.721 364.225 432.878 367.205 430.586 371.995C423.619 386.526 411.758 396.026 397.846 403.222C389.09 407.749 379.877 410.923 369.907 411.187C369.724 410.74 369.54 410.305 369.357 409.858V409.846Z" fill="#214F50"/>
</svg>
